# xmcd
#
# Track frame offsets: 
#        150
#        22481
#        38747
#        54892
#        81231
#        99655
#        123583
#        151269
#        173688
#        197000
#
# Disc length: 2908 seconds
#
# Revision: 3
# Processed by: cddbd v1.5.2PL0 Copyright (c) Steve Scherf et al.
# Submitted via: ExactAudioCopy v0.99pb5
#
DISCID=7d0b5a0a
DTITLE=Lynn Riley - Too Cool
DYEAR=2008
DGENRE=Lynn Riley
TTITLE0=Too Cool
TTITLE1=Missing You
TTITLE2=Grover's Groove
TTITLE3=Island Breeze
TTITLE4=Sedona
TTITLE5=Crawfish Creole
TTITLE6=Tierra del Sol
TTITLE7=Oasis
TTITLE8=Tag You're It
TTITLE9=Pamela
EXTD=
EXTT0=
EXTT1=
EXTT2=
EXTT3=
EXTT4=
EXTT5=
EXTT6=
EXTT7=
EXTT8=
EXTT9=
PLAYORDER=
